# xmcd
#
# Track frame offsets:
#	150
#	12745
#	27580
#	46827
#	63040
#	78745
#	96290
#	111385
#	125652
#	140965
#	154662
#
# Disc length: 2237 seconds
#
# Revision: 2
# Processed by: cddbd v1.5PL3 Copyright (c) Steve Scherf et al.
# Submitted via: dBpowerAMP V4.0
#
DISCID=9e08bb0b
DTITLE=Joe Diffie - Third Rock From The Sun
DYEAR=1900
DGENRE=Country
TTITLE0=Third Rock From The Sun
TTITLE1=I'm In Love With A Capital 'U'
TTITLE2=The Road Not Taken
TTITLE3=Pickup Man
TTITLE4=So Help me Girl
TTITLE5=Wild Blue Yonder
TTITLE6=I'd Like To Have A Problem Like That
TTITLE7=Junior's In Love
TTITLE8=From Here On Out
TTITLE9=Good Brown Gravy
TTITLE10=The Cows Came Home
EXTD=Your listing before I submit this has capitalization and spelling errors. Please use this updated one.\nThank you.\n\nGreg Mitchell
EXTT0=
EXTT1=
EXTT2=
EXTT3=
EXTT4=
EXTT5=
EXTT6=
EXTT7=
EXTT8=
EXTT9=
EXTT10=
PLAYORDER=
